<svg xmlns="http://www.w3.org/2000/svg" height="40" viewBox="0 96 960 960" width="40"><path d="M482 811.333q17.667 0 29.833-12.166Q524 787 524 769.333q0-17.666-12.167-29.833-12.166-12.166-29.833-12.166-17.666 0-29.833 12.166Q440 751.667 440 769.333q0 17.667 12.167 29.834 12.167 12.166 29.833 12.166Zm-35.333-148.666h64q0-28.334 6.833-49 6.833-20.667 41.166-50.334 29.334-26 43.001-50.5 13.666-24.5 13.666-55.5 0-53.999-36.666-85.333-36.667-31.333-93.334-31.333-51.666 0-88.5 26.333Q360 393.333 344 436l57.333 22q9-24.667 29.5-42t52.5-17.333q33.334 0 52.667 18.166 19.334 18.167 19.334 44.5 0 21.334-12.667 40.167-12.667 18.833-35.334 37.834-34.666 30.333-47.666 53.999-13 23.667-13 69.334ZM480 976q-82.333 0-155.333-31.5t-127.334-85.833Q143 804.333 111.5 731.333T80 576q0-83 31.5-156t85.833-127q54.334-54 127.334-85.5T480 176q83 0 156 31.5T763 293q54 54 85.5 127T880 576q0 82.333-31.5 155.333T763 858.667Q709 913 636 944.5T480 976Z"/></svg>