<svg xmlns="http://www.w3.org/2000/svg" version="1.1" width="3300" height="2000"><g id="Notes"><style>
    text {
      font-family: monospace;
      text-anchor: middle;
    }
    text.emphasis {
      font-weight:bold;
    }
    text.lanchor {
      text-anchor: start;
    }
  </style><rect height="2200" id="artboard" fill="white" width="3300" x="0" y="0"/><line id="" style="fill:none;stroke:black;stroke-width:0.5;" x1="263" x2="3036" y1="292" y2="292"/><text class="lanchor emphasis" transform="matrix(1 0 0 1 263 322)">Weight/Scale Variations</text><text transform="matrix(1 0 0 1 559.711 322)">Ultralight</text><text transform="matrix(1 0 0 1 856.422 322)">Thin</text><text transform="matrix(1 0 0 1 1153.13 322)">Light</text><text transform="matrix(1 0 0 1 1449.84 322)">Regular</text><text transform="matrix(1 0 0 1 1746.56 322)">Medium</text><text transform="matrix(1 0 0 1 2043.27 322)">Semibold</text><text transform="matrix(1 0 0 1 2339.98 322)">Bold</text><text transform="matrix(1 0 0 1 2636.69 322)">Heavy</text><text transform="matrix(1 0 0 1 2933.4 322)">Black</text><text id="template-version" style="text-anchor: end;" transform="matrix(1 0 0 1 3036 1933)">Template v.1.0</text><text class="lanchor" transform="matrix(1 0 0 1 263 726)">Small</text><text class="lanchor" transform="matrix(1 0 0 1 263 1156)">Medium</text><text class="lanchor" transform="matrix(1 0 0 1 263 1586)">Large</text></g><g id="Guides"><g id="H-reference" style="fill:#27AAE1;stroke:none;" transform="matrix(1 0 0 1 339 696)"><path d="M 54.9316 0 L 57.666 0 L 30.5664 -70.459 L 28.0762 -70.459 L 0.976562 0 L 3.66211 0 L 12.9395 -24.4629 L 45.7031 -24.4629 Z M 29.1992 -67.0898 L 29.4434 -67.0898 L 44.8242 -26.709 L 13.8184 -26.709 Z"/></g><line id="Baseline-S" style="fill:none;stroke:#27AAE1;opacity:1;stroke-width:0.577;" x1="263" x2="3036" y1="696" y2="696"/><line id="Capline-S" style="fill:none;stroke:#27AAE1;opacity:1;stroke-width:0.577;" x1="263" x2="3036" y1="625.541" y2="625.541"/><g id="H-reference" style="fill:#27AAE1;stroke:none;" transform="matrix(1 0 0 1 339 1126)"><path d="M 54.9316 0 L 57.666 0 L 30.5664 -70.459 L 28.0762 -70.459 L 0.976562 0 L 3.66211 0 L 12.9395 -24.4629 L 45.7031 -24.4629 Z M 29.1992 -67.0898 L 29.4434 -67.0898 L 44.8242 -26.709 L 13.8184 -26.709 Z"/></g><line id="Baseline-M" style="fill:none;stroke:#27AAE1;opacity:1;stroke-width:0.577;" x1="263" x2="3036" y1="1126" y2="1126"/><line id="Capline-M" style="fill:none;stroke:#27AAE1;opacity:1;stroke-width:0.577;" x1="263" x2="3036" y1="1055.54" y2="1055.54"/><g id="H-reference" style="fill:#27AAE1;stroke:none;" transform="matrix(1 0 0 1 339 1556)"><path d="M 54.9316 0 L 57.666 0 L 30.5664 -70.459 L 28.0762 -70.459 L 0.976562 0 L 3.66211 0 L 12.9395 -24.4629 L 45.7031 -24.4629 Z M 29.1992 -67.0898 L 29.4434 -67.0898 L 44.8242 -26.709 L 13.8184 -26.709 Z"/></g><line id="Baseline-L" style="fill:none;stroke:#27AAE1;opacity:1;stroke-width:0.577;" x1="263" x2="3036" y1="1556" y2="1556"/><line id="Capline-L" style="fill:none;stroke:#27AAE1;opacity:1;stroke-width:0.577;" x1="263" x2="3036" y1="1485.54" y2="1485.54"/><rect height="119.336" id="left-margin" style="fill:darkred;stroke:none;opacity:0.4;" width="12.4512" x="1394.06" y="1030.79"/><rect height="119.336" id="right-margin" style="fill:darkgreen;stroke:none;opacity:0.4;" width="12.4512" x="1502.5112" y="1030.79"/><rect x="1406.5112" y="1045" width="96" height="96" fill="none" stroke="blue" stroke-dasharray="5"/><rect x="1394.06" y="1030.79" width="120.9024" height="119.336" fill="none" stroke="blue"/></g><g id="Symbols"><g id="Bold-L" transform="matrix(1 0 0 1 2266 1556)"><path d="M36.4425 -0.7224999999999824 Q46.44 -7.494999999999976 56.276250000000005 -11.123124999999987 Q66.1125 -14.751249999999985 77.47014375 -14.751249999999985 Q88.8277875 -14.751249999999985 98.8227075 -10.999284999999972 Q108.8176275 -7.247319999999988 118.51875 -0.7224999999999824 Q125.29125 -9.591249999999988 128.0325 -17.727441249999984 Q130.77375 -25.86363249999998 130.77375 -35.22999999999999 Q130.77375 -57.84482874999999 115.4024325 -73.22420874999997 Q100.03127625 -88.60374999999999 77.4280575 -88.60374999999999 Q54.825 -88.60374999999999 39.425625000000004 -73.22420874999997 Q24.02625 -57.84482874999999 24.02625 -35.22999999999999 Q24.02625 -25.877499999999984 26.77185375 -17.78000874999998 Q29.517457500000003 -9.682517499999989 36.4425 -0.7224999999999824 Z M77.3700075 -29.263749999999987 Q67.53843375000001 -29.263749999999987 60.939761250000004 -35.90499249999999 Q54.34125 -42.54623499999998 54.34125 -52.271867499999985 Q54.34125 -61.99749999999999 60.96975375000001 -68.68937499999998 Q67.59841875 -75.38125 77.4299925 -75.38125 Q87.26156625000002 -75.38125 93.86023875 -68.65938249999999 Q100.45875000000001 -61.937514999999976 100.45875000000001 -52.21188249999999 Q100.45875000000001 -42.486249999999984 93.83024625 -35.874999999999986 Q87.20158125 -29.263749999999987 77.3700075 -29.263749999999987 Z M77.38145625 33.30125000000001 Q63.37125 33.30125000000001 50.892435000000006 27.93307625 Q38.41362 22.564741250000026 29.011455 13.166446250000035 Q19.60945125 3.7679899999999975 14.23902 -8.68163874999999 Q8.86875 -21.131267499999993 8.86875 -35.286276249999986 Q8.86875 -49.25874999999998 14.270625 -61.75562499999998 Q19.6725 -74.25249999999998 29.025000000000002 -83.60499999999999 Q38.3775 -92.95749999999998 50.83486875 -98.43999999999998 Q63.292398750000004 -103.92249999999999 77.45627625 -103.92249999999999 Q91.42875000000001 -103.92249999999999 103.925625 -98.43999999999998 Q116.4225 -92.95749999999998 125.775 -83.60499999999999 Q135.1275 -74.25249999999998 140.61 -61.73708124999999 Q146.0925 -49.22150124999999 146.0925 -35.21145624999998 Q146.0925 -21.201249999999987 140.61 -8.704374999999985 Q135.1275 3.792500000000018 125.775 13.14500000000001 Q116.4225 22.49750000000003 103.90708125 27.89937500000002 Q91.39150125 33.30125000000001 77.38145625 33.30125000000001 Z M77.4 18.14375000000001 Q85.785 18.14375000000001 93.44437500000001 15.886250000000018 Q101.10375 13.628750000000025 109.3275 7.662500000000023 Q100.94250000000001 2.0187500000000114 93.36375 -0.6418749999999847 Q85.785 -3.3024999999999807 77.4 -3.3024999999999807 Q69.015 -3.3024999999999807 61.516875 -0.6418749999999847 Q54.018750000000004 2.0187500000000114 45.63375 7.662500000000023 Q53.8575 13.628750000000025 61.43625 15.886250000000018 Q69.015 18.14375000000001 77.4 18.14375000000001 Z M77.4 -40.87374999999999 Q82.37730375000001 -40.87374999999999 85.61294625000001 -44.01812499999998 Q88.84875 -47.16249999999998 88.84875 -52.24187499999998 Q88.84875 -57.32124999999998 85.61294625000001 -60.546249999999986 Q82.37730375000001 -63.77124999999998 77.4 -63.77124999999998 Q72.42269625 -63.77124999999998 69.18705375 -60.546249999999986 Q65.95125 -57.32124999999998 65.95125 -52.24187499999998 Q65.95125 -47.16249999999998 69.18705375 -44.01812499999998 Q72.42269625 -40.87374999999999 77.4 -40.87374999999999 Z"/></g><g id="Semibold-L" transform="matrix(1 0 0 1 1970.27 1556)"><path d="M36.16208625 0.04859750000002805 Q46.22973 -6.864028749999974 56.1359625 -10.562297499999985 Q66.04235625 -14.260566249999982 77.4396675 -14.260566249999982 Q88.83681750000001 -14.260566249999982 98.86801875 -10.492314999999977 Q108.89905875 -6.724063749999985 118.79916375 0.04859750000002805 Q125.71195125000001 -8.750008749999978 128.55833625 -17.204668749999982 Q131.40472125 -25.659328749999986 131.40472125 -35.22999999999999 Q131.40472125 -58.177971249999985 115.88102250000001 -73.70634624999998 Q100.35732375 -89.23472124999998 77.41596375 -89.23472124999998 Q54.4744425 -89.23472124999998 38.93494125 -73.70634624999998 Q23.39527875 -58.177971249999985 23.39527875 -35.22999999999999 Q23.39527875 -25.66722999999999 26.279235000000003 -17.234338749999978 Q29.16319125 -8.801608749999971 36.16208625 0.04859750000002805 Z M77.3700075 -29.75443374999999 Q67.75966875 -29.75443374999999 61.26081 -36.290541249999976 Q54.761951249999996 -42.826648749999976 54.761951249999996 -52.37700249999999 Q54.761951249999996 -61.92735624999999 61.290802500000005 -68.47910499999999 Q67.81965375 -75.03069249999999 77.4299925 -75.03069249999999 Q87.04033125 -75.03069249999999 93.53918999999999 -68.44911249999998 Q100.03804875 -61.86737124999998 100.03804875 -52.31701749999999 Q100.03804875 -42.76666374999999 93.50919750000001 -36.26054874999997 Q86.98034625000001 -29.75443374999999 77.3700075 -29.75443374999999 Z M77.4222525 31.54862375000002 Q63.7218075 31.54862375000002 51.55049625 26.30606375000002 Q39.37934625 21.063342500000005 30.244211250000003 11.930303750000007 Q21.109076249999998 2.7971037500000193 15.86522625 -9.341151249999982 Q10.62137625 -21.479406249999982 10.62137625 -35.28047124999998 Q10.62137625 -48.978336249999984 15.88296375 -61.12465374999998 Q21.1447125 -73.27097124999999 30.25179 -82.37820999999998 Q39.35902875 -91.48528749999998 51.5016375 -96.79250874999998 Q63.64440750000001 -102.09972999999998 77.45047125 -102.09972999999998 Q91.14833625 -102.09972999999998 103.29465375 -96.79250874999998 Q115.44097125 -91.48528749999998 124.54821000000001 -82.37820999999998 Q133.65528750000001 -73.27097124999999 138.96250875 -61.11191499999998 Q144.26973 -48.95285874999999 144.26973 -35.25225249999998 Q144.26973 -21.55180749999998 138.96250875 -9.370337499999977 Q133.65528750000001 2.810971250000023 124.54821000000001 11.918210000000016 Q115.44097125 21.02528750000002 103.28191500000001 26.28703625000003 Q91.12285874999999 31.54862375000002 77.4222525 31.54862375000002 Z M77.4 18.774721250000027 Q85.99527 18.774721250000027 94.0052025 16.376933750000006 Q102.01513500000001 13.979307500000004 110.23888500000001 7.802787500000022 Q101.92402875 2.088893750000011 93.9245775 -0.7470099999999888 Q85.9252875 -3.582913749999989 77.4 -3.582913749999989 Q68.8747125 -3.582913749999989 60.92105625 -0.7470099999999888 Q52.96723875 2.088893750000011 44.652221250000004 7.802787500000022 Q52.875971250000006 13.979307500000004 60.84043125 16.376933750000006 Q68.80473 18.774721250000027 77.4 18.774721250000027 Z M77.4 -40.52319249999999 Q82.59692625000001 -40.52319249999999 85.93318875 -43.80785499999999 Q89.26945125 -47.09235624999998 89.26945125 -52.34700999999998 Q89.26945125 -57.601663749999986 85.93318875 -60.931798749999984 Q82.59692625000001 -64.26193374999998 77.4 -64.26193374999998 Q72.20307375 -64.26193374999998 68.86681125 -60.931798749999984 Q65.53054875000001 -57.601663749999986 65.53054875000001 -52.34700999999998 Q65.53054875000001 -47.09235624999998 68.86681125 -43.80785499999999 Q72.20307375 -40.52319249999999 77.4 -40.52319249999999 Z"/></g><g id="Medium-L" transform="matrix(1 0 0 1 1674.31 1556)"><path d="M35.95181625 0.6271625000000256 Q46.07186625 -6.390759999999986 56.0308275 -10.141596249999978 Q65.98978875 -13.892432499999984 77.41677 -13.892432499999984 Q88.84375125000001 -13.892432499999984 98.90204250000001 -10.111926249999982 Q108.9601725 -6.331581249999971 119.00943375 0.6271625000000256 Q126.02735625000001 -8.119037499999976 128.9525925 -16.812508749999978 Q131.87798999999998 -25.506141249999985 131.87798999999998 -35.22999999999999 Q131.87798999999998 -58.427908749999986 116.23996500000001 -74.06803 Q100.60194000000001 -89.70799 77.4067725 -89.70799 Q54.211605000000006 -89.70799 38.5668075 -74.06803 Q22.92201 -58.427908749999986 22.92201 -35.22999999999999 Q22.92201 -25.509366249999985 25.909650000000003 -16.825086249999984 Q28.89745125 -8.140806249999983 35.95181625 0.6271625000000256 Z M77.3700075 -30.122567499999988 Q67.92575625 -30.122567499999988 61.50155625 -36.579823749999974 Q55.07735625 -43.036918749999984 55.07735625 -52.45585374999999 Q55.07735625 -61.87478874999998 61.531548750000006 -68.32124124999999 Q67.98574125 -74.767855 77.4299925 -74.767855 Q86.87424375 -74.767855 93.29844375 -68.29124875 Q99.72264374999999 -61.81480374999998 99.72264374999999 -52.39586874999998 Q99.72264374999999 -42.976933749999986 93.26845125 -36.54983124999997 Q86.81425875000001 -30.122567499999988 77.3700075 -30.122567499999988 Z M77.45289 30.233952500000015 Q63.984645 30.233952500000015 52.04424375 25.08556250000001 Q40.1038425 19.937172500000003 31.16881875 11.003116250000005 Q22.23395625 2.0688987500000167 17.08492125 -9.835866249999995 Q11.9360475 -21.740631249999993 11.9360475 -35.27611749999997 Q11.9360475 -48.768066249999976 17.0925 -60.651384999999976 Q22.2489525 -72.534865 31.17204375 -81.45795624999998 Q40.095135 -90.38104749999998 52.00183500000001 -95.55684999999998 Q63.90837375 -100.73265249999999 77.4461175 -100.73265249999999 Q90.93806625 -100.73265249999999 102.821385 -95.55684999999998 Q114.704865 -90.38104749999998 123.62795625 -81.45795624999998 Q132.5510475 -72.534865 137.72685 -60.64299999999999 Q142.9026525 -48.75129624999998 142.9026525 -35.28288999999998 Q142.9026525 -21.814644999999985 137.72685 -9.86988999999997 Q132.5510475 2.074865000000017 123.62795625 10.997956250000016 Q114.704865 19.921047500000014 102.813 25.077500000000015 Q90.92129625 30.233952500000015 77.45289 30.233952500000015 Z M77.4 19.247990000000016 Q86.15313375000001 19.247990000000016 94.42590375 16.745067500000033 Q102.69867375 14.242145000000022 110.92242375 7.907922500000012 Q102.66013500000001 2.1414612500000203 94.34527875 -0.8258612499999742 Q86.03042250000001 -3.793183749999983 77.4 -3.793183749999983 Q68.7695775 -3.793183749999983 60.47407125 -0.8258612499999742 Q52.17840375 2.1414612500000203 43.916115000000005 7.907922500000012 Q52.139865 14.242145000000022 60.393446250000004 16.745067500000033 Q68.64686625 19.247990000000016 77.4 19.247990000000016 Z M77.4 -40.26035499999999 Q82.76172375 -40.26035499999999 86.17329000000001 -43.649991249999985 Q89.58485625000002 -47.039788749999985 89.58485625000002 -52.42586124999998 Q89.58485625000002 -57.81193374999998 86.17329000000001 -61.22108124999998 Q82.76172375 -64.6300675 77.4 -64.6300675 Q72.03827625000001 -64.6300675 68.62671 -61.22108124999998 Q65.21514375 -57.81193374999998 65.21514375 -52.42586124999998 Q65.21514375 -47.039788749999985 68.62671 -43.649991249999985 Q72.03827625000001 -40.26035499999999 77.4 -40.26035499999999 Z"/></g><g id="Regular-L" transform="matrix(1 0 0 1 1378.56 1556)"><path d="M35.7975 1.0512500000000102 Q45.956250000000004 -6.043749999999989 55.95375 -9.833124999999981 Q65.95125 -13.622499999999988 77.4 -13.622499999999988 Q88.84875 -13.622499999999988 98.92687500000001 -9.833124999999981 Q109.00500000000001 -6.043749999999989 119.16375000000001 1.0512500000000102 Q126.25875 -7.656249999999986 129.241875 -16.524999999999977 Q132.225 -25.393749999999983 132.225 -35.22999999999999 Q132.225 -58.611249999999984 116.503125 -74.33312499999998 Q100.78125 -90.05499999999998 77.4 -90.05499999999998 Q54.018750000000004 -90.05499999999998 38.296875 -74.33312499999998 Q22.575 -58.611249999999984 22.575 -35.22999999999999 Q22.575 -25.393749999999983 25.63875 -16.524999999999977 Q28.7025 -7.656249999999986 35.7975 1.0512500000000102 Z M77.3700075 -30.392499999999984 Q68.0475 -30.392499999999984 61.678125 -36.791867499999995 Q55.30875 -43.19123499999998 55.30875 -52.51374249999998 Q55.30875 -61.83624999999998 61.7081175 -68.20562499999998 Q68.10748500000001 -74.57499999999999 77.4299925 -74.57499999999999 Q86.7525 -74.57499999999999 93.121875 -68.17563249999998 Q99.49125000000001 -61.77626499999998 99.49125000000001 -52.45375749999998 Q99.49125000000001 -43.13124999999998 93.0918825 -36.76187499999999 Q86.69251500000001 -30.392499999999984 77.3700075 -30.392499999999984 Z M77.475465 29.27000000000001 Q64.1775 29.27000000000001 52.40625 24.19062500000001 Q40.635 19.111250000000013 31.846875 10.323125000000005 Q23.05875 1.535000000000025 17.979375 -10.19851749999998 Q12.9 -21.932034999999985 12.9 -35.27289249999998 Q12.9 -48.61374999999998 17.979375 -60.30437499999998 Q23.05875 -71.99499999999998 31.846875 -80.78312499999998 Q40.635 -89.57124999999999 52.3685175 -94.65062499999999 Q64.102035 -99.72999999999999 77.4428925 -99.72999999999999 Q90.78375 -99.72999999999999 102.47437500000001 -94.65062499999999 Q114.165 -89.57124999999999 122.953125 -80.78312499999998 Q131.74125 -71.99499999999998 136.820625 -60.29921499999999 Q141.9 -48.603429999999975 141.9 -35.30546499999997 Q141.9 -22.00749999999998 136.820625 -10.236249999999984 Q131.74125 1.535000000000025 122.953125 10.323125000000005 Q114.165 19.111250000000013 102.46921499999999 24.19062500000001 Q90.77343 29.27000000000001 77.475465 29.27000000000001 Z M77.4 19.595000000000027 Q86.26875 19.595000000000027 94.734375 17.015000000000015 Q103.2 14.43500000000003 111.42375 7.985000000000014 Q103.2 2.180000000000007 94.65375 -0.8837499999999778 Q86.1075 -3.9474999999999767 77.4 -3.9474999999999767 Q68.6925 -3.9474999999999767 60.14625 -0.8837499999999778 Q51.6 2.180000000000007 43.37625 7.985000000000014 Q51.6 14.43500000000003 60.065625000000004 17.015000000000015 Q68.53125 19.595000000000027 77.4 19.595000000000027 Z M77.4 -40.06749999999998 Q82.88250000000001 -40.06749999999998 86.34937500000001 -43.53437499999998 Q89.81625 -47.001249999999985 89.81625 -52.483749999999986 Q89.81625 -57.96624999999999 86.34937500000001 -61.43312499999999 Q82.88250000000001 -64.89999999999998 77.4 -64.89999999999998 Q71.9175 -64.89999999999998 68.450625 -61.43312499999999 Q64.98375 -57.96624999999999 64.98375 -52.483749999999986 Q64.98375 -47.001249999999985 68.450625 -43.53437499999998 Q71.9175 -40.06749999999998 77.4 -40.06749999999998 Z"/></g><g id="Light-L" transform="matrix(1 0 0 1 1082.77 1556)"><path d="M37.41016125 1.3613337500000284 Q47.072745 -5.299419999999984 56.63599875 -8.964793749999984 Q66.19941375 -12.630167499999985 77.4 -12.630167499999985 Q88.60058625 -12.630167499999985 98.21366625 -8.964793749999984 Q107.82658500000001 -5.299419999999984 117.48916875 1.3613337500000284 Q124.52208750000001 -6.787918749999989 127.93929750000001 -15.848072499999986 Q131.35666875 -24.908226249999984 131.35666875 -35.22999999999999 Q131.35666875 -58.05300249999999 115.78991625 -73.61991624999999 Q100.2230025 -89.18666875 77.4 -89.18666875 Q54.5769975 -89.18666875 39.01008375 -73.61991624999999 Q23.44333125 -58.05300249999999 23.44333125 -35.22999999999999 Q23.44333125 -24.908226249999984 26.910206249999998 -15.848072499999986 Q30.37708125 -6.787918749999989 37.41016125 1.3613337500000284 Z M77.36500875 -31.570914999999985 Q68.66766750000001 -31.570914999999985 62.732538749999996 -37.541196249999985 Q56.79724875 -43.51131624999998 56.79724875 -52.20865749999999 Q56.79724875 -60.90583749999999 62.76753 -66.84112749999998 Q68.73765 -72.77625624999999 77.43499125 -72.77625624999999 Q86.1323325 -72.77625624999999 92.06746125000001 -66.80613624999998 Q98.00275125 -60.836016249999986 98.00275125 -52.13867499999999 Q98.00275125 -43.441333749999984 92.03247 -37.50620499999998 Q86.06235000000001 -31.570914999999985 77.36500875 -31.570914999999985 Z M77.475465 26.044838750000025 Q64.7357475 26.044838750000025 53.5714425 21.244426250000032 Q42.407298749999995 16.44417500000003 34.066481249999995 8.090296250000023 Q25.725825 -0.26374374999997485 20.925573749999998 -11.376932499999981 Q16.12516125 -22.490282499999992 16.12516125 -35.241932499999976 Q16.12516125 -47.99358249999999 20.925573749999998 -59.094838749999994 Q25.725825 -70.19625624999999 34.07970375 -78.55029624999999 Q42.43374375 -86.90417499999998 53.546932500000004 -91.70442624999998 Q64.66028250000001 -96.50483874999998 77.4119325 -96.50483874999998 Q90.1635825 -96.50483874999998 101.26483875000001 -91.70442624999998 Q112.36625625 -86.90417499999998 120.72029625 -78.55029624999999 Q129.074175 -70.19625624999999 133.87442625 -59.089678749999976 Q138.67483875000002 -47.983101249999976 138.67483875000002 -35.30546499999997 Q138.67483875000002 -22.565747499999986 133.87442625 -11.401442499999987 Q129.074175 -0.23729874999997946 120.72029625 8.103518750000035 Q112.36625625 16.44417500000003 101.25967875 21.244426250000032 Q90.15310125 26.044838750000025 77.475465 26.044838750000025 Z M77.4 18.726668750000016 Q86.39275125 18.726668750000016 95.1375 15.867545000000007 Q103.88224875 13.008421250000026 111.6098325 6.620502500000015 Q103.88224875 0.9395037500000285 95.2429575 -2.186327499999976 Q86.60366625 -5.3119974999999755 77.4 -5.3119974999999755 Q68.19633375000001 -5.3119974999999755 59.5260825 -2.2172874999999834 Q50.85567 0.8774225000000229 43.25224875 6.620502500000015 Q50.91775125 13.008421250000026 59.6625 15.867545000000007 Q68.40724875000001 18.726668750000016 77.4 18.726668750000016 Z M77.40870749999999 -38.88908499999998 Q83.19258375 -38.88908499999998 86.9385825 -42.64362999999999 Q90.68458125000001 -46.398336249999986 90.68458125000001 -52.18221249999998 Q90.68458125000001 -57.96624999999999 86.92987500000001 -61.712248749999986 Q83.17533 -65.45824749999998 77.3912925 -65.45824749999998 Q71.60741625 -65.45824749999998 67.8614175 -61.70354124999999 Q64.11541875 -57.94899624999998 64.11541875 -52.16495874999998 Q64.11541875 -46.38108249999998 67.870125 -42.63508374999998 Q71.62467000000001 -38.88908499999998 77.40870749999999 -38.88908499999998 Z"/></g><g id="Thin-L" transform="matrix(1 0 0 1 787.282 1556)"><path d="M39.0225 1.6714175000000182 Q48.1889175 -4.5552512499999835 57.31808625 -8.096623749999978 Q66.44741625 -11.637834999999981 77.4 -11.637834999999981 Q88.35258375000001 -11.637834999999981 97.5004575 -8.096623749999978 Q106.64833125 -4.5552512499999835 115.81474875 1.6714175000000182 Q122.7857475 -5.919748749999982 126.6370425 -15.171306249999986 Q130.48849875 -24.42270249999997 130.48849875 -35.22999999999999 Q130.48849875 -57.49491624999999 115.0767075 -72.90670749999998 Q99.66491625 -88.31849874999997 77.4 -88.31849874999997 Q55.13508375 -88.31849874999997 39.7232925 -72.90670749999998 Q24.311501250000003 -57.49491624999999 24.311501250000003 -35.22999999999999 Q24.311501250000003 -24.42270249999997 28.18150125 -15.171306249999986 Q32.05150125 -5.919748749999982 39.0225 1.6714175000000182 Z M77.36001 -32.74916874999998 Q69.287835 -32.74916874999998 63.78679125 -38.29036374999998 Q58.28558625 -43.83139749999998 58.28558625 -51.90357249999998 Q58.28558625 -59.97574749999998 63.82678125 -65.47679124999999 Q69.367815 -70.97783499999998 77.43999 -70.97783499999998 Q85.512165 -70.97783499999998 91.01320875 -65.43680124999999 Q96.51441375 -59.89576749999999 96.51441375 -51.82359249999999 Q96.51441375 -43.75141749999999 90.97321875 -38.25037374999998 Q85.432185 -32.74916874999998 77.36001 -32.74916874999998 Z M77.475465 22.82000000000002 Q65.29383375 22.82000000000002 54.736635 18.298872500000016 Q44.179275000000004 13.77758375000002 36.28592625 5.857790000000023 Q28.39241625 -2.062164999999979 23.871127500000004 -12.555186249999977 Q19.35 -23.048368749999995 19.35 -35.21081124999998 Q19.35 -47.37341499999998 23.871127500000004 -57.88562499999999 Q28.39241625 -68.39783499999999 36.31221 -76.31778999999997 Q44.232165 -84.23758374999998 54.72518625 -88.75887249999998 Q65.21836875 -93.27999999999999 77.38081125 -93.27999999999999 Q89.543415 -93.27999999999999 100.055625 -88.75887249999998 Q110.567835 -84.23758374999998 118.48779 -76.31778999999997 Q126.40758375 -68.39783499999999 130.9288725 -57.88046499999999 Q135.45000000000002 -47.36309499999999 135.45000000000002 -35.30546499999997 Q135.45000000000002 -23.12383374999999 130.9288725 -12.566634999999977 Q126.40758375 -2.009274999999988 118.48779 5.884073750000027 Q110.567835 13.77758375000002 100.050465 18.298872500000016 Q89.533095 22.82000000000002 77.475465 22.82000000000002 Z M77.4 17.858498750000024 Q86.51675250000001 17.858498750000024 95.540625 14.720251250000018 Q104.56433625000001 11.582165000000003 111.79591500000001 5.256166250000007 Q104.56433625000001 -0.30083124999997324 95.832165 -3.4885824999999784 Q87.0998325 -6.6763337499999835 77.4 -6.6763337499999835 Q67.7001675 -6.6763337499999835 58.905915 -3.550502499999979 Q50.11150125 -0.4248324999999795 43.1282475 5.256166250000007 Q50.23566375 11.582165000000003 59.259375 14.720251250000018 Q68.2832475 17.858498750000024 77.4 17.858498750000024 Z M77.41725375 -37.710831249999984 Q83.5026675 -37.710831249999984 87.52779 -41.753207499999974 Q91.55275125 -45.79542249999999 91.55275125 -51.88083624999999 Q91.55275125 -57.96624999999999 87.51037500000001 -61.99137249999998 Q83.46799874999999 -66.01633374999999 77.38274625 -66.01633374999999 Q71.2973325 -66.01633374999999 67.27221 -61.97395749999998 Q63.247248750000004 -57.931581249999994 63.247248750000004 -51.846328749999984 Q63.247248750000004 -45.76091499999998 67.289625 -41.73579249999999 Q71.33200125 -37.710831249999984 77.41725375 -37.710831249999984 Z"/></g><g id="Ultralight-L" transform="matrix(1 0 0 1 491.205 1556)"><path d="M39.99 1.857500000000016 Q48.85875 -4.108749999999986 57.7275 -7.575624999999988 Q66.59625 -11.042499999999976 77.4 -11.042499999999976 Q88.20375 -11.042499999999976 97.0725 -7.575624999999988 Q105.94125 -4.108749999999986 114.81 1.857500000000016 Q121.74375 -5.398749999999978 125.855625 -14.765117499999988 Q129.9675 -24.131484999999984 129.9675 -35.22999999999999 Q129.9675 -57.15999999999998 114.64875 -72.47874999999999 Q99.33 -87.79749999999999 77.4 -87.79749999999999 Q55.47 -87.79749999999999 40.151250000000005 -72.47874999999999 Q24.8325 -57.15999999999998 24.8325 -35.22999999999999 Q24.8325 -24.131484999999984 28.944375 -14.765117499999988 Q33.05625 -5.398749999999978 39.99 1.857500000000016 Z M77.3571075 -33.45624999999998 Q69.66 -33.45624999999998 64.419375 -38.73976749999997 Q59.17875 -44.02344624999999 59.17875 -51.72039249999999 Q59.17875 -59.41749999999999 64.46226750000001 -64.65812499999998 Q69.74594625 -69.89874999999998 77.4428925 -69.89874999999998 Q85.14 -69.89874999999998 90.38062500000001 -64.61523249999999 Q95.62125 -59.33155374999998 95.62125 -51.63460749999997 Q95.62125 -43.937499999999986 90.33773250000002 -38.69687499999998 Q85.05405375 -33.45624999999998 77.3571075 -33.45624999999998 Z M77.475465 20.88500000000002 Q65.62875 20.88500000000002 55.43565375 16.53125000000003 Q45.24271875 12.177500000000009 37.617528750000005 4.518125000000026 Q29.9925 -3.141249999999985 25.63875 -13.262267499999979 Q21.285 -23.383284999999987 21.285 -35.19226749999997 Q21.285 -47.001249999999985 25.63875 -57.15999999999998 Q29.9925 -67.31874999999998 37.651875000000004 -74.97812499999998 Q45.31125 -82.63749999999999 55.4322675 -86.99124999999998 Q65.553285 -91.34499999999998 77.3622675 -91.34499999999998 Q89.17125 -91.34499999999998 99.33 -86.99124999999998 Q109.48875 -82.63749999999999 117.14812500000001 -74.97812499999998 Q124.8075 -67.31874999999998 129.16125 -57.15483999999999 Q133.51500000000001 -46.99092999999998 133.51500000000001 -35.30546499999997 Q133.51500000000001 -23.45874999999998 129.16125 -13.265653749999984 Q124.8075 -3.072718749999993 117.14812500000001 4.552471250000025 Q109.48875 12.177500000000009 99.32484 16.53125000000003 Q89.16093000000001 20.88500000000002 77.475465 20.88500000000002 Z M77.4 17.337500000000006 Q86.59125 17.337500000000006 95.7825 14.031875000000014 Q104.97375000000001 10.726250000000022 111.9075 4.437500000000028 Q104.97375000000001 -1.0449999999999875 96.185625 -4.269999999999982 Q87.39750000000001 -7.494999999999976 77.4 -7.494999999999976 Q67.4025 -7.494999999999976 58.533750000000005 -4.3506249999999795 Q49.665 -1.206249999999983 43.05375 4.437500000000028 Q49.82625 10.726250000000022 59.0175 14.031875000000014 Q68.20875 17.337500000000006 77.4 17.337500000000006 Z M77.422575 -37.00374999999998 Q83.68875 -37.00374999999998 87.88125000000001 -41.21882499999998 Q92.07375 -45.43373874999999 92.07375 -51.700074999999984 Q92.07375 -57.96624999999999 87.858675 -62.15874999999998 Q83.64376125 -66.35125 77.377425 -66.35125 Q71.11125 -66.35125 66.91875 -62.13617499999998 Q62.72625 -57.921261249999986 62.72625 -51.65492499999999 Q62.72625 -45.38874999999999 66.941325 -41.19624999999998 Q71.15623875 -37.00374999999998 77.422575 -37.00374999999998 Z"/></g><g id="Bold-M" transform="matrix(1 0 0 1 2281.8 1126)"><path d="M29.875 -11.60499999999999 Q36.25 -16.22999999999999 43.875 -18.79249999999999 Q51.5 -21.35499999999999 60.027 -21.35499999999999 Q68.554 -21.35499999999999 76.3395 -18.60499999999999 Q84.125 -15.85499999999999 90.125 -11.47999999999999 Q94.125 -16.72999999999999 96.3125 -22.54249999999999 Q98.5 -28.35499999999999 98.5 -35.22999999999999 Q98.5 -51.10499999999999 87.1875 -62.41749999999999 Q75.875 -73.72999999999999 60.0 -73.72999999999999 Q44.125 -73.72999999999999 32.8125 -62.41749999999999 Q21.5 -51.10499999999999 21.5 -35.22999999999999 Q21.5 -28.47999999999999 23.625 -22.66749999999999 Q25.75 -16.85499999999999 29.875 -11.60499999999999 Z M60.0 -29.10499999999999 Q52.125 -29.10499999999999 46.8125 -34.35499999999999 Q41.5 -39.60499999999999 41.5 -47.47999999999999 Q41.5 -55.35499999999999 46.8125 -60.66749999999999 Q52.125 -65.97999999999999 60.0 -65.97999999999999 Q67.875 -65.97999999999999 73.1875 -60.66749999999999 Q78.5 -55.35499999999999 78.5 -47.47999999999999 Q78.5 -39.60499999999999 73.1875 -34.35499999999999 Q67.875 -29.10499999999999 60.0 -29.10499999999999 Z M59.989625 19.02000000000001 Q48.75 19.02000000000001 38.875 14.77000000000001 Q29.0 10.52000000000001 21.625 3.1450000000000102 Q14.25 -4.22999999999999 10.0 -14.115374999999986 Q5.75 -24.000874999999994 5.75 -35.240374999999986 Q5.75 -46.47999999999999 10.0 -56.35499999999999 Q14.25 -66.22999999999999 21.625 -73.60499999999999 Q29.0 -80.97999999999999 38.885375 -85.22999999999999 Q48.770875 -89.47999999999999 60.010375 -89.47999999999999 Q71.25 -89.47999999999999 81.125 -85.22999999999999 Q91.0 -80.97999999999999 98.375 -73.60499999999999 Q105.75 -66.22999999999999 110.0 -56.344624999999986 Q114.25 -46.45912499999999 114.25 -35.21962499999999 Q114.25 -23.97999999999999 110.0 -14.10499999999999 Q105.75 -4.22999999999999 98.375 3.1450000000000102 Q91.0 10.52000000000001 81.114625 14.77000000000001 Q71.229125 19.02000000000001 59.989625 19.02000000000001 Z M60.0 3.2700000000000102 Q66.0 3.2700000000000102 71.125 1.6450000000000102 Q76.25 0.020000000000010232 81.125 -3.1049999999999898 Q76.0 -6.35499999999999 71.1875 -7.91749999999999 Q66.375 -9.47999999999999 60.0 -9.47999999999999 Q53.625 -9.47999999999999 48.875 -7.91749999999999 Q44.125 -6.35499999999999 39.0 -3.1049999999999898 Q43.875 0.020000000000010232 48.9375 1.6450000000000102 Q54.0 3.2700000000000102 60.0 3.2700000000000102 Z M60.0 -40.97999999999999 Q62.75 -40.97999999999999 64.625 -42.85499999999999 Q66.5 -44.72999999999999 66.5 -47.47999999999999 Q66.5 -50.22999999999999 64.625 -52.16749999999999 Q62.75 -54.10499999999999 60.0 -54.10499999999999 Q57.25 -54.10499999999999 55.375 -52.16749999999999 Q53.5 -50.22999999999999 53.5 -47.47999999999999 Q53.5 -44.72999999999999 55.375 -42.85499999999999 Q57.25 -40.97999999999999 60.0 -40.97999999999999 Z"/></g><g id="Semibold-M" transform="matrix(1 0 0 1 1985.97 1126)"><path d="M29.60325 -10.789874999999995 Q35.97825 -15.523499999999984 43.712 -18.194749999999985 Q51.445625 -20.86587499999999 60.01525 -20.86587499999999 Q68.584875 -20.86587499999999 76.40925 -18.08874999999999 Q84.23375 -15.311499999999995 90.39675 -10.719124999999991 Q94.55975 -15.914874999999995 96.856 -22.02624999999999 Q99.152125 -28.137624999999986 99.152125 -35.22999999999999 Q99.152125 -51.43112499999999 87.676625 -62.90662499999999 Q76.201125 -74.38212499999999 60.0 -74.38212499999999 Q43.798875 -74.38212499999999 32.323375 -62.90662499999999 Q20.847875 -51.43112499999999 20.847875 -35.22999999999999 Q20.847875 -28.208249999999992 23.10875 -22.096874999999983 Q25.369625 -15.985499999999988 29.60325 -10.789874999999995 Z M60.0 -29.59412499999999 Q52.342375 -29.59412499999999 47.138625 -34.762624999999986 Q41.93475 -39.931124999999994 41.93475 -47.58874999999999 Q41.93475 -55.24624999999999 47.138625 -60.45012499999999 Q52.342375 -65.653875 60.0 -65.653875 Q67.657625 -65.653875 72.861375 -60.45012499999999 Q78.06525 -55.24624999999999 78.06525 -47.58874999999999 Q78.06525 -39.931124999999994 72.861375 -34.762624999999986 Q67.657625 -29.59412499999999 60.0 -29.59412499999999 Z M59.994125 17.172250000000005 Q49.130375 17.172250000000005 39.5815 13.058125000000004 Q30.0325 8.944000000000017 22.92925 1.840750000000014 Q15.826 -5.262499999999989 11.711875 -14.817374999999984 Q7.59775 -24.372124999999983 7.59775 -35.23587499999999 Q7.59775 -46.09962499999999 11.711875 -55.64849999999999 Q15.826 -65.19749999999999 22.92925 -72.30075 Q30.0325 -79.404 39.587375 -83.518125 Q49.142125 -87.63224999999998 60.005875 -87.63224999999998 Q70.869625 -87.63224999999998 80.4185 -83.518125 Q89.9675 -79.404 97.07075 -72.30075 Q104.174 -65.19749999999999 108.288125 -55.64262499999999 Q112.40225 -46.08787499999999 112.40225 -35.22412499999999 Q112.40225 -24.36037499999999 108.288125 -14.811499999999995 Q104.174 -5.262499999999989 97.07075 1.840750000000014 Q89.9675 8.944000000000017 80.412625 13.058125000000004 Q70.857875 17.172250000000005 59.994125 17.172250000000005 Z M60.0 3.9221250000000083 Q66.27175 3.9221250000000083 71.72275 2.1612500000000097 Q77.173875 0.400375000000011 82.048875 -2.941999999999993 Q77.0325 -6.35499999999999 71.758125 -8.080499999999986 Q66.48375 -9.806124999999994 60.0 -9.806124999999994 Q53.51625 -9.806124999999994 48.27725 -8.080499999999986 Q43.038125 -6.35499999999999 38.02175 -2.941999999999993 Q42.89675 0.400375000000011 48.3125 2.1612500000000097 Q53.72825 3.9221250000000083 60.0 3.9221250000000083 Z M60.0 -40.653874999999985 Q62.967375 -40.653874999999985 64.951125 -42.637624999999986 Q66.93475 -44.62124999999999 66.93475 -47.58874999999999 Q66.93475 -50.55612499999999 64.951125 -52.57512499999999 Q62.967375 -54.59412499999999 60.0 -54.59412499999999 Q57.032625 -54.59412499999999 55.048875 -52.57512499999999 Q53.06525 -50.55612499999999 53.06525 -47.58874999999999 Q53.06525 -44.62124999999999 55.048875 -42.637624999999986 Q57.032625 -40.653874999999985 60.0 -40.653874999999985 Z"/></g><g id="Medium-M" transform="matrix(1 0 0 1 1689.91 1126)"><path d="M29.3995 -10.178374999999988 Q35.7745 -14.993624999999994 43.589625 -17.74624999999999 Q51.404875 -20.498999999999995 60.0065 -20.498999999999995 Q68.608 -20.498999999999995 76.461625 -17.701499999999996 Q84.31525 -14.903874999999985 90.6005 -10.148499999999984 Q94.885875 -15.303374999999988 97.263625 -21.638999999999996 Q99.64125 -27.97462499999999 99.64125 -35.22999999999999 Q99.64125 -51.67562499999999 88.0435 -63.27349999999999 Q76.445625 -74.87124999999999 60.0 -74.87124999999999 Q43.554375 -74.87124999999999 31.9565 -63.27349999999999 Q20.35875 -51.67562499999999 20.35875 -35.22999999999999 Q20.35875 -28.004499999999993 22.7215 -21.668874999999986 Q25.08425 -15.333249999999992 29.3995 -10.178374999999988 Z M60.0 -29.960999999999984 Q52.505375 -29.960999999999984 47.383125 -35.06824999999999 Q42.260875 -40.175625 42.260875 -47.67024999999999 Q42.260875 -55.16474999999999 47.383125 -60.28712499999999 Q52.505375 -65.40937499999998 60.0 -65.40937499999998 Q67.494625 -65.40937499999998 72.616875 -60.28712499999999 Q77.739125 -55.16474999999999 77.739125 -47.67024999999999 Q77.739125 -40.175625 72.616875 -35.06824999999999 Q67.494625 -29.960999999999984 60.0 -29.960999999999984 Z M59.9975 15.786375000000007 Q49.41575 15.786375000000007 40.111375 11.774125000000012 Q30.807 7.761875000000003 23.907625 0.8623750000000143 Q17.008125 -6.036999999999992 12.995875 -15.343874999999983 Q8.983625 -24.650749999999988 8.983625 -35.23249999999999 Q8.983625 -45.81424999999999 12.995875 -55.11862499999999 Q17.008125 -64.42299999999999 23.907625 -71.322375 Q30.807 -78.22187499999998 40.113875 -82.23412499999999 Q49.42075 -86.24637499999999 60.0025 -86.24637499999999 Q70.58425 -86.24637499999999 79.888625 -82.23412499999999 Q89.193 -78.22187499999998 96.092375 -71.322375 Q102.991875 -64.42299999999999 107.004125 -55.11612499999999 Q111.016375 -45.80924999999999 111.016375 -35.22749999999999 Q111.016375 -24.645749999999992 107.004125 -15.341374999999985 Q102.991875 -6.036999999999992 96.092375 0.8623750000000143 Q89.193 7.761875000000003 79.886125 11.774125000000012 Q70.57925 15.786375000000007 59.9975 15.786375000000007 Z M60.0 4.41125000000001 Q66.4755 4.41125000000001 72.17125 2.548500000000004 Q77.866875 0.685750000000013 82.741875 -2.819624999999988 Q77.807 -6.35499999999999 72.186125 -8.202874999999992 Q66.56525 -10.050624999999997 60.0 -10.050624999999997 Q53.43475 -10.050624999999997 47.82875 -8.202874999999992 Q42.222875 -6.35499999999999 37.288 -2.819624999999988 Q42.163 0.685750000000013 47.84375 2.548500000000004 Q53.5245 4.41125000000001 60.0 4.41125000000001 Z M60.0 -40.40937499999998 Q63.130375 -40.40937499999998 65.195625 -42.47462499999999 Q67.260875 -44.53974999999999 67.260875 -47.67024999999999 Q67.260875 -50.80062499999999 65.195625 -52.88074999999999 Q63.130375 -54.96099999999999 60.0 -54.96099999999999 Q56.869625 -54.96099999999999 54.804375 -52.88074999999999 Q52.739125 -50.80062499999999 52.739125 -47.67024999999999 Q52.739125 -44.53974999999999 54.804375 -42.47462499999999 Q56.869625 -40.40937499999998 60.0 -40.40937499999998 Z"/></g><g id="Regular-M" transform="matrix(1 0 0 1 1394.06 1126)"><path d="M29.25 -9.72999999999999 Q35.625 -14.60499999999999 43.5 -17.41749999999999 Q51.375 -20.22999999999999 60.0 -20.22999999999999 Q68.625 -20.22999999999999 76.5 -17.41749999999999 Q84.375 -14.60499999999999 90.75 -9.72999999999999 Q95.125 -14.85499999999999 97.5625 -21.35499999999999 Q100.0 -27.85499999999999 100.0 -35.22999999999999 Q100.0 -51.85499999999999 88.3125 -63.54249999999999 Q76.625 -75.22999999999999 60.0 -75.22999999999999 Q43.375 -75.22999999999999 31.6875 -63.54249999999999 Q20.0 -51.85499999999999 20.0 -35.22999999999999 Q20.0 -27.85499999999999 22.4375 -21.35499999999999 Q24.875 -14.85499999999999 29.25 -9.72999999999999 Z M60.0 -30.22999999999999 Q52.625 -30.22999999999999 47.5625 -35.29249999999999 Q42.5 -40.35499999999999 42.5 -47.72999999999999 Q42.5 -55.10499999999999 47.5625 -60.16749999999999 Q52.625 -65.22999999999999 60.0 -65.22999999999999 Q67.375 -65.22999999999999 72.4375 -60.16749999999999 Q77.5 -55.10499999999999 77.5 -47.72999999999999 Q77.5 -40.35499999999999 72.4375 -35.29249999999999 Q67.375 -30.22999999999999 60.0 -30.22999999999999 Z M60.0 14.77000000000001 Q49.625 14.77000000000001 40.5 10.83250000000001 Q31.375 6.89500000000001 24.625 0.14500000000001023 Q17.875 -6.60499999999999 13.9375 -15.72999999999999 Q10.0 -24.85499999999999 10.0 -35.22999999999999 Q10.0 -45.60499999999999 13.9375 -54.72999999999999 Q17.875 -63.85499999999999 24.625 -70.60499999999999 Q31.375 -77.35499999999999 40.5 -81.29249999999999 Q49.625 -85.22999999999999 60.0 -85.22999999999999 Q70.375 -85.22999999999999 79.5 -81.29249999999999 Q88.625 -77.35499999999999 95.375 -70.60499999999999 Q102.125 -63.85499999999999 106.0625 -54.72999999999999 Q110.0 -45.60499999999999 110.0 -35.22999999999999 Q110.0 -24.85499999999999 106.0625 -15.72999999999999 Q102.125 -6.60499999999999 95.375 0.14500000000001023 Q88.625 6.89500000000001 79.5 10.83250000000001 Q70.375 14.77000000000001 60.0 14.77000000000001 Z M60.0 4.77000000000001 Q66.625 4.77000000000001 72.5 2.8325000000000102 Q78.375 0.8950000000000102 83.25 -2.7299999999999898 Q78.375 -6.35499999999999 72.5 -8.29249999999999 Q66.625 -10.22999999999999 60.0 -10.22999999999999 Q53.375 -10.22999999999999 47.5 -8.29249999999999 Q41.625 -6.35499999999999 36.75 -2.7299999999999898 Q41.625 0.8950000000000102 47.5 2.8325000000000102 Q53.375 4.77000000000001 60.0 4.77000000000001 Z M60.0 -40.22999999999999 Q63.25 -40.22999999999999 65.375 -42.35499999999999 Q67.5 -44.47999999999999 67.5 -47.72999999999999 Q67.5 -50.97999999999999 65.375 -53.10499999999999 Q63.25 -55.22999999999999 60.0 -55.22999999999999 Q56.75 -55.22999999999999 54.625 -53.10499999999999 Q52.5 -50.97999999999999 52.5 -47.72999999999999 Q52.5 -44.47999999999999 54.625 -42.35499999999999 Q56.75 -40.22999999999999 60.0 -40.22999999999999 Z"/></g><g id="Light-M" transform="matrix(1 0 0 1 1098.18 1126)"><path d="M30.1155 -8.768374999999992 Q36.4905 -13.499124999999992 44.004875 -16.239499999999992 Q51.51925 -18.979874999999993 60.0 -18.979874999999993 Q68.48075 -18.979874999999993 75.995125 -16.239499999999992 Q83.5095 -13.499124999999992 89.8845 -8.768374999999992 Q94.548 -13.893374999999992 97.274 -20.633749999999992 Q100.0 -27.37424999999999 100.0 -35.22999999999999 Q100.0 -51.85499999999999 88.3125 -63.54249999999999 Q76.625 -75.22999999999999 60.0 -75.22999999999999 Q43.375 -75.22999999999999 31.6875 -63.54249999999999 Q20.0 -51.85499999999999 20.0 -35.22999999999999 Q20.0 -27.37424999999999 22.726 -20.633749999999992 Q25.452 -13.893374999999992 30.1155 -8.768374999999992 Z M60.0015 -31.480124999999987 Q53.153875 -31.480124999999987 48.452 -36.180499999999995 Q43.750125 -40.880999999999986 43.750125 -47.72849999999999 Q43.750125 -54.57612499999999 48.4505 -59.27799999999999 Q53.151 -63.97987499999999 59.9985 -63.97987499999999 Q66.846125 -63.97987499999999 71.548 -59.27949999999999 Q76.249875 -54.578999999999986 76.249875 -47.73149999999999 Q76.249875 -40.88387499999999 71.5495 -36.18199999999999 Q66.849 -31.480124999999987 60.0015 -31.480124999999987 Z M60.0 12.269875000000013 Q50.10575 12.269875000000013 41.437625 8.548625000000015 Q32.769375 4.827500000000015 26.355875 -1.5858749999999873 Q19.9425 -7.999374999999986 16.221375 -16.667624999999987 Q12.500125 -25.33574999999999 12.500125 -35.22999999999999 Q12.500125 -45.12424999999999 16.221375 -53.79237499999999 Q19.9425 -62.46062499999999 26.355875 -68.87412499999999 Q32.769375 -75.2875 41.437625 -79.008625 Q50.10575 -82.72987499999999 60.0 -82.72987499999999 Q69.89425 -82.72987499999999 78.562375 -79.008625 Q87.230625 -75.2875 93.644125 -68.87412499999999 Q100.0575 -62.46062499999999 103.778625 -53.79237499999999 Q107.499875 -45.12424999999999 107.499875 -35.22999999999999 Q107.499875 -25.33574999999999 103.778625 -16.667624999999987 Q100.0575 -7.999374999999986 93.644125 -1.5858749999999873 Q87.230625 4.827500000000015 78.562375 8.548625000000015 Q69.89425 12.269875000000013 60.0 12.269875000000013 Z M60.0 4.77000000000001 Q66.76925 4.77000000000001 73.052875 2.59212500000001 Q79.336625 0.4142500000000098 84.211625 -3.4992499999999893 Q79.336625 -7.268499999999989 73.197125 -9.37424999999999 Q67.05775 -11.480124999999987 60.0 -11.480124999999987 Q52.94225 -11.480124999999987 46.77875 -9.398374999999987 Q40.61525 -7.316624999999988 35.788375 -3.4992499999999893 Q40.663375 0.4142500000000098 46.947125 2.59212500000001 Q53.23075 4.77000000000001 60.0 4.77000000000001 Z M60.0 -38.97987499999999 Q63.73075 -38.97987499999999 66.2405 -41.48949999999999 Q68.750125 -43.99924999999999 68.750125 -47.72999999999999 Q68.750125 -51.46074999999999 66.2405 -53.97049999999999 Q63.73075 -56.48012499999999 60.0 -56.48012499999999 Q56.26925 -56.48012499999999 53.7595 -53.97049999999999 Q51.249875 -51.46074999999999 51.249875 -47.72999999999999 Q51.249875 -43.99924999999999 53.7595 -41.48949999999999 Q56.26925 -38.97987499999999 60.0 -38.97987499999999 Z"/></g><g id="Thin-M" transform="matrix(1 0 0 1 802.565 1126)"><path d="M30.98075 -7.806874999999991 Q37.35575 -12.393499999999989 44.509625 -15.06174999999999 Q51.6635 -17.72999999999999 60.0 -17.72999999999999 Q68.3365 -17.72999999999999 75.490375 -15.06174999999999 Q82.64425 -12.393499999999989 89.01925 -7.806874999999991 Q93.971125 -12.931874999999991 96.985625 -19.91274999999999 Q100.0 -26.89349999999999 100.0 -35.22999999999999 Q100.0 -51.85499999999999 88.3125 -63.54249999999999 Q76.625 -75.22999999999999 60.0 -75.22999999999999 Q43.375 -75.22999999999999 31.6875 -63.54249999999999 Q20.0 -51.85499999999999 20.0 -35.22999999999999 Q20.0 -26.89349999999999 23.014375 -19.91274999999999 Q26.028875 -12.931874999999991 30.98075 -7.806874999999991 Z M60.002875 -32.72999999999999 Q53.682625 -32.72999999999999 49.341375 -37.068499999999986 Q45.0 -41.406874999999985 45.0 -47.72712499999999 Q45.0 -54.04737499999999 49.338375 -58.38862499999999 Q53.676875 -62.72999999999999 59.997125 -62.72999999999999 Q66.317375 -62.72999999999999 70.658625 -58.391499999999986 Q75.0 -54.05312499999999 75.0 -47.73287499999999 Q75.0 -41.41262499999999 70.6615 -37.07137499999999 Q66.323125 -32.72999999999999 60.002875 -32.72999999999999 Z M60.0 9.77000000000001 Q50.5865 9.77000000000001 42.375 6.265250000000009 Q34.1635 2.7603750000000105 28.0865 -3.3164999999999907 Q22.009625 -9.393499999999989 18.50475 -17.60499999999999 Q15.0 -25.81649999999999 15.0 -35.22999999999999 Q15.0 -44.64349999999999 18.50475 -52.85499999999999 Q22.009625 -61.06649999999999 28.0865 -67.14349999999999 Q34.1635 -73.22037499999999 42.375 -76.72524999999999 Q50.5865 -80.22999999999999 60.0 -80.22999999999999 Q69.4135 -80.22999999999999 77.625 -76.72524999999999 Q85.8365 -73.22037499999999 91.9135 -67.14349999999999 Q97.990375 -61.06649999999999 101.49525 -52.85499999999999 Q105.0 -44.64349999999999 105.0 -35.22999999999999 Q105.0 -25.81649999999999 101.49525 -17.60499999999999 Q97.990375 -9.393499999999989 91.9135 -3.3164999999999907 Q85.8365 2.7603750000000105 77.625 6.265250000000009 Q69.4135 9.77000000000001 60.0 9.77000000000001 Z M60.0 4.77000000000001 Q66.9135 4.77000000000001 73.60575 2.3517500000000098 Q80.298125 -0.06649999999999068 85.173125 -4.268499999999989 Q80.298125 -8.181874999999991 73.89425 -10.455999999999989 Q67.490375 -12.72999999999999 60.0 -12.72999999999999 Q52.509625 -12.72999999999999 46.05775 -10.50399999999999 Q39.60575 -8.278124999999989 34.826875 -4.268499999999989 Q39.701875 -0.06649999999999068 46.39425 2.3517500000000098 Q53.0865 4.77000000000001 60.0 4.77000000000001 Z M60.0 -37.72999999999999 Q64.2115 -37.72999999999999 67.10575 -40.62424999999999 Q70.0 -43.51849999999999 70.0 -47.72999999999999 Q70.0 -51.94149999999999 67.10575 -54.83574999999999 Q64.2115 -57.72999999999999 60.0 -57.72999999999999 Q55.7885 -57.72999999999999 52.89425 -54.83574999999999 Q50.0 -51.94149999999999 50.0 -47.72999999999999 Q50.0 -43.51849999999999 52.89425 -40.62424999999999 Q55.7885 -37.72999999999999 60.0 -37.72999999999999 Z"/></g><g id="Ultralight-M" transform="matrix(1 0 0 1 506.415 1126)"><path d="M31.5 -7.22999999999999 Q37.875 -11.72999999999999 44.8125 -14.35499999999999 Q51.75 -16.97999999999999 60.0 -16.97999999999999 Q68.25 -16.97999999999999 75.1875 -14.35499999999999 Q82.125 -11.72999999999999 88.5 -7.22999999999999 Q93.625 -12.35499999999999 96.8125 -19.47999999999999 Q100.0 -26.60499999999999 100.0 -35.22999999999999 Q100.0 -51.85499999999999 88.3125 -63.54249999999999 Q76.625 -75.22999999999999 60.0 -75.22999999999999 Q43.375 -75.22999999999999 31.6875 -63.54249999999999 Q20.0 -51.85499999999999 20.0 -35.22999999999999 Q20.0 -26.60499999999999 23.1875 -19.47999999999999 Q26.375 -12.35499999999999 31.5 -7.22999999999999 Z M60.00375 -33.47999999999999 Q54.0 -33.47999999999999 49.875 -37.60124999999999 Q45.75 -41.7225 45.75 -47.72624999999999 Q45.75 -53.72999999999999 49.87125 -57.85499999999999 Q53.9925 -61.97999999999999 59.99625 -61.97999999999999 Q66.0 -61.97999999999999 70.125 -57.858749999999986 Q74.25 -53.73749999999999 74.25 -47.733749999999986 Q74.25 -41.72999999999999 70.12875 -37.60499999999999 Q66.0075 -33.47999999999999 60.00375 -33.47999999999999 Z M60.0 8.27000000000001 Q50.875 8.27000000000001 42.9375 4.89500000000001 Q35.0 1.5200000000000102 29.125 -4.35499999999999 Q23.25 -10.22999999999999 19.875 -18.16749999999999 Q16.5 -26.10499999999999 16.5 -35.22999999999999 Q16.5 -44.35499999999999 19.875 -52.29249999999999 Q23.25 -60.22999999999999 29.125 -66.10499999999999 Q35.0 -71.97999999999999 42.9375 -75.35499999999999 Q50.875 -78.72999999999999 60.0 -78.72999999999999 Q69.125 -78.72999999999999 77.0625 -75.35499999999999 Q85.0 -71.97999999999999 90.875 -66.10499999999999 Q96.75 -60.22999999999999 100.125 -52.29249999999999 Q103.5 -44.35499999999999 103.5 -35.22999999999999 Q103.5 -26.10499999999999 100.125 -18.16749999999999 Q96.75 -10.22999999999999 90.875 -4.35499999999999 Q85.0 1.5200000000000102 77.0625 4.89500000000001 Q69.125 8.27000000000001 60.0 8.27000000000001 Z M60.0 4.77000000000001 Q67.0 4.77000000000001 73.9375 2.2075000000000102 Q80.875 -0.35499999999998977 85.75 -4.72999999999999 Q80.875 -8.72999999999999 74.3125 -11.10499999999999 Q67.75 -13.47999999999999 60.0 -13.47999999999999 Q52.25 -13.47999999999999 45.625 -11.16749999999999 Q39.0 -8.85499999999999 34.25 -4.72999999999999 Q39.125 -0.35499999999998977 46.0625 2.2075000000000102 Q53.0 4.77000000000001 60.0 4.77000000000001 Z M60.0 -36.97999999999999 Q64.5 -36.97999999999999 67.625 -40.10499999999999 Q70.75 -43.22999999999999 70.75 -47.72999999999999 Q70.75 -52.22999999999999 67.625 -55.35499999999999 Q64.5 -58.47999999999999 60.0 -58.47999999999999 Q55.5 -58.47999999999999 52.375 -55.35499999999999 Q49.25 -52.22999999999999 49.25 -47.72999999999999 Q49.25 -43.22999999999999 52.375 -40.10499999999999 Q55.5 -36.97999999999999 60.0 -36.97999999999999 Z"/></g><g id="Bold-S" transform="matrix(1 0 0 1 2294.23 696)"><path d="M23.867250000000002 -17.477499999999992 Q29.193 -21.02799999999999 35.0611875 -22.655312499999994 Q40.929375 -24.282624999999996 47.361303 -24.282624999999996 Q53.793231000000006 -24.282624999999996 59.788053000000005 -22.507374999999996 Q65.782875 -20.732124999999996 70.81275000000001 -17.378874999999994 Q73.96875 -21.521124999999998 75.448125 -25.909937499999998 Q76.92750000000001 -30.29874999999999 76.92750000000001 -35.23 Q76.92750000000001 -47.427446874999994 68.22581625000001 -56.122522749999995 Q59.52423112500001 -64.8175 47.31731625 -64.8175 Q35.1105 -64.8175 26.4315 -56.122522749999995 Q17.7525 -47.427446874999994 17.7525 -35.23 Q17.7525 -30.397374999999997 19.1825625 -26.008562499999996 Q20.612625 -21.619749999999996 23.867250000000002 -17.477499999999992 Z M47.34 -27.24137499999999 Q41.028 -27.24137499999999 36.688500000000005 -31.531562499999993 Q32.349000000000004 -35.821749999999994 32.349000000000004 -42.13374999999999 Q32.349000000000004 -48.44575 36.688500000000005 -52.78525 Q41.028 -57.12474999999999 47.34 -57.12474999999999 Q53.652 -57.12474999999999 57.9915 -52.78525 Q62.331 -48.44575 62.331 -42.13374999999999 Q62.331 -35.821749999999994 57.9915 -31.531562499999993 Q53.652 -27.24137499999999 47.34 -27.24137499999999 Z M47.358936 5.995250000000013 Q38.85825 5.995250000000013 31.362750000000002 2.7899375000000077 Q23.867250000000002 -0.4153749999999974 18.1963125 -6.086312499999991 Q12.525375 -11.757249999999999 9.3200625 -19.256892249999993 Q6.11475 -26.756435874999994 6.11475 -35.28345475 Q6.11475 -43.81037499999999 9.3200625 -51.256562499999994 Q12.525375 -58.702749999999995 18.1963125 -64.37368749999999 Q23.867250000000002 -70.044625 31.36689225 -73.24993749999999 Q38.86643587500001 -76.45524999999999 47.39345475 -76.45524999999999 Q55.920375 -76.45524999999999 63.3665625 -73.24993749999999 Q70.81275000000001 -70.044625 76.4836875 -64.37368749999999 Q82.15462500000001 -58.702749999999995 85.3599375 -51.226186 Q88.56525 -43.749720624999995 88.56525 -35.24893599999999 Q88.56525 -26.74825 85.3599375 -19.252749999999992 Q82.15462500000001 -11.757249999999999 76.4836875 -6.086312499999991 Q70.81275000000001 -0.4153749999999974 63.336186000000005 2.7899375000000077 Q55.859720625 5.995250000000013 47.358936 5.995250000000013 Z M47.34 -5.642499999999998 Q51.975375 -5.642499999999998 56.117625000000004 -7.02324999999999 Q60.259875 -8.403999999999996 64.402125 -11.165499999999994 Q59.964000000000006 -13.532499999999999 56.068312500000005 -14.617374999999996 Q52.172625000000004 -15.702249999999992 47.34 -15.702249999999992 Q42.507375 -15.702249999999992 38.6116875 -14.666687499999995 Q34.716 -13.631124999999997 30.3765 -11.165499999999994 Q34.518750000000004 -8.403999999999996 38.6116875 -7.02324999999999 Q42.704625 -5.642499999999998 47.34 -5.642499999999998 Z M47.34 -35.821749999999994 Q49.904250000000005 -35.821749999999994 51.778125 -37.69562499999999 Q53.652 -39.5695 53.652 -42.13374999999999 Q53.652 -44.69799999999999 51.778125 -46.6211875 Q49.904250000000005 -48.544374999999995 47.34 -48.544374999999995 Q44.77575 -48.544374999999995 42.901875000000004 -46.6211875 Q41.028 -44.69799999999999 41.028 -42.13374999999999 Q41.028 -39.5695 42.901875000000004 -37.69562499999999 Q44.77575 -35.821749999999994 47.34 -35.821749999999994 Z"/></g><g id="Semibold-S" transform="matrix(1 0 0 1 1998.1 696)"><path d="M23.65283925 -16.834366375000002 Q28.978589250000002 -20.47057149999999 34.93258050000001 -22.18368774999999 Q40.886473125 -23.896705374999996 47.35203225 -23.896705374999996 Q53.817591375 -23.896705374999996 59.84308575 -22.10005375 Q65.86867875 -20.3033035 71.02716075000001 -16.778544624999995 Q74.31176775 -20.877991374999993 75.8769465 -25.50261624999999 Q77.442026625 -30.12724112499999 77.442026625 -35.23 Q77.442026625 -47.68475949999999 68.61173587500001 -56.508343749999995 Q59.781445125000005 -65.332026625 47.31731625 -65.332026625 Q34.853187375000005 -65.332026625 26.045580375 -56.508343749999995 Q17.237973375 -47.68475949999999 17.237973375 -35.23 Q17.237973375 -30.182964249999998 18.77524125 -25.55833937499999 Q20.312509125000002 -20.933714499999994 23.65283925 -16.834366375000002 Z M47.34 -27.62729462499999 Q41.199508875 -27.62729462499999 36.945812625 -31.85317862499999 Q32.692017750000005 -36.079062625 32.692017750000005 -42.219553749999996 Q32.692017750000005 -48.35994624999999 36.945812625 -52.613741125 Q41.199508875 -56.867437374999994 47.34 -56.867437374999994 Q53.480491125 -56.867437374999994 57.734187375 -52.613741125 Q61.98798225000001 -48.35994624999999 61.98798225000001 -42.219553749999996 Q61.98798225000001 -36.079062625 57.734187375 -31.85317862499999 Q53.480491125 -27.62729462499999 47.34 -27.62729462499999 Z M47.362585125 4.537375249999997 Q39.158365875 4.537375249999997 31.9201785 1.4392681249999981 Q24.6818925 -1.6588389999999862 19.22536575 -7.115365749999995 Q13.768839000000002 -12.57189249999999 10.670731875 -19.810671624999998 Q7.57262475 -27.04945074999999 7.57262475 -35.279805624999995 Q7.57262475 -43.510259125 10.670731875 -50.699133999999994 Q13.768839000000002 -57.8881075 19.22536575 -63.34463424999999 Q24.6818925 -68.801161 31.920671625 -71.89926812499999 Q39.15945075 -74.99737524999999 47.389805625 -74.99737524999999 Q55.620259125000004 -74.99737524999999 62.809134 -71.89926812499999 Q69.9981075 -68.801161 75.45463425000001 -63.34463424999999 Q80.911161 -57.8881075 84.009268125 -50.672406624999994 Q87.10737525 -43.45670574999999 87.10737525 -35.252585124999996 Q87.10737525 -27.048365874999988 84.009268125 -19.810178499999992 Q80.911161 -12.57189249999999 75.45463425000001 -7.115365749999995 Q69.9981075 -1.6588389999999862 62.782406625 1.4392681249999981 Q55.566705750000004 4.537375249999997 47.362585125 4.537375249999997 Z M47.34 -5.127973374999996 Q52.18978575 -5.127973374999996 56.58924975000001 -6.615928749999995 Q60.988812375 -8.103884124999993 65.131062375 -11.036892999999992 Q60.778642500000004 -13.532499999999999 56.518535625000005 -14.745981999999984 Q52.25842875 -15.959562625000004 47.34 -15.959562625000004 Q42.42157125 -15.959562625000004 38.140062750000006 -14.795294499999997 Q33.858455625000005 -13.631124999999997 29.60466075 -11.036892999999992 Q33.74691075 -8.103884124999993 38.1185625 -6.615928749999995 Q42.49021425 -5.127973374999996 47.34 -5.127973374999996 Z M47.34 -35.56443737499999 Q50.075758875 -35.56443737499999 52.03543762500001 -37.52411612499999 Q53.995017749999995 -39.483696249999994 53.995017749999995 -42.219553749999996 Q53.995017749999995 -44.95531262499999 52.03543762500001 -46.942803624999996 Q50.075758875 -48.930294624999995 47.34 -48.930294624999995 Q44.604241125 -48.930294624999995 42.64456237500001 -46.942803624999996 Q40.684982250000004 -44.95531262499999 40.684982250000004 -42.219553749999996 Q40.684982250000004 -39.483696249999994 42.64456237500001 -37.52411612499999 Q44.604241125 -35.56443737499999 47.34 -35.56443737499999 Z"/></g><g id="Medium-S" transform="matrix(1 0 0 1 1701.85 696)"><path d="M23.4920805 -16.35189287499999 Q28.817830500000003 -20.052500124999995 34.836026625 -21.829821249999995 Q40.854321375 -23.607241000000002 47.3451285 -23.607241000000002 Q53.835837000000005 -23.607241000000002 59.884409625 -21.794513499999994 Q65.93298225000001 -19.981687374999993 71.1879195 -16.328321499999987 Q74.569080375 -20.395517874999996 76.19856262500001 -25.197075999999996 Q77.82794625 -29.998634124999995 77.82794625 -35.23 Q77.82794625 -47.877669999999995 68.90120025 -56.797808124999996 Q59.97445425 -65.71794625 47.31731625 -65.71794625 Q34.660276875 -65.71794625 25.756116 -56.797808124999996 Q16.85205375 -47.877669999999995 16.85205375 -35.23 Q16.85205375 -30.0222055 18.469701 -25.220647374999984 Q20.08734825 -20.41908925 23.4920805 -16.35189287499999 Z M47.34 -27.916758999999985 Q41.328115875 -27.916758999999985 37.138723125 -32.09431675 Q32.949330375 -36.271973125 32.949330375 -42.28385725 Q32.949330375 -48.29564275 37.138723125 -52.485134124999995 Q41.328115875 -56.674526875 47.34 -56.674526875 Q53.351884125000005 -56.674526875 57.541276874999994 -52.485134124999995 Q61.730669625000004 -48.29564275 61.730669625000004 -42.28385725 Q61.730669625000004 -36.271973125 57.541276874999994 -32.09431675 Q53.351884125000005 -27.916758999999985 47.34 -27.916758999999985 Z M47.365248 3.443919875000006 Q39.38352675 3.443919875000006 32.338249875 0.42619212500001424 Q25.292973000000003 -2.5915356249999917 19.997303625 -7.887303624999987 Q14.701535625 -13.18297299999999 11.683807875000001 -20.22617874999999 Q8.666080125 -27.269285874999994 8.666080125 -35.27714274999999 Q8.666080125 -43.28509824999999 11.683807875000001 -50.28106262499999 Q14.701535625 -57.277027 19.997303625 -62.57269637499999 Q25.292973000000003 -67.868464375 32.33617875 -70.886192125 Q39.379285875 -73.903919875 47.38714275 -73.903919875 Q55.395098250000004 -73.903919875 62.391062625 -70.886192125 Q69.387027 -67.868464375 74.682696375 -62.57269637499999 Q79.978464375 -57.277027 82.99619212500001 -50.256998124999996 Q86.013919875 -43.236870624999995 86.013919875 -35.255247999999995 Q86.013919875 -27.273526750000002 82.99619212500001 -20.22824987499999 Q79.978464375 -13.18297299999999 74.682696375 -7.887303624999987 Q69.387027 -2.5915356249999917 62.366998125 0.42619212500001424 Q55.346870624999994 3.443919875000006 47.365248 3.443919875000006 Z M47.34 -4.742053749999997 Q52.3505445 -4.742053749999997 56.94311625 -6.310388500000002 Q61.535589375 -7.878723249999993 65.67783937499999 -10.940339124999994 Q61.389723000000004 -13.532499999999999 56.856227625 -14.842535874999996 Q52.32273225000001 -16.152473125 47.34 -16.152473125 Q42.357267750000005 -16.152473125 37.78619625 -14.891848374999995 Q33.215223375 -13.631124999999997 29.025731999999998 -10.940339124999994 Q33.167982 -7.878723249999993 37.74871875 -6.310388500000002 Q42.3294555 -4.742053749999997 47.34 -4.742053749999997 Z M47.34 -35.37152687499999 Q50.204365875 -35.37152687499999 52.22834812500001 -37.395509125 Q54.252330375 -39.41939274999999 54.252330375 -42.28385725 Q54.252330375 -45.148223124999994 52.22834812500001 -47.183941749999995 Q50.204365875 -49.219758999999996 47.34 -49.219758999999996 Q44.475634125 -49.219758999999996 42.451651875 -47.183941749999995 Q40.427669625 -45.148223124999994 40.427669625 -42.28385725 Q40.427669625 -39.41939274999999 42.451651875 -37.395509125 Q44.475634125 -35.37152687499999 47.34 -35.37152687499999 Z"/></g><g id="Regular-S" transform="matrix(1 0 0 1 1405.73 696)"><path d="M23.374125 -15.998124999999987 Q28.699875000000002 -19.745874999999998 34.7653125 -21.570437499999997 Q40.83075 -23.394999999999996 47.34 -23.394999999999996 Q53.849250000000005 -23.394999999999996 59.9146875 -21.570437499999997 Q65.980125 -19.745874999999998 71.305875 -15.998124999999987 Q74.75775 -20.041749999999993 76.434375 -24.973 Q78.111 -29.90424999999999 78.111 -35.23 Q78.111 -48.019196875 69.11344125000001 -57.010147749999994 Q60.115981125000005 -66.00099999999999 47.31731625 -66.00099999999999 Q34.518750000000004 -66.00099999999999 25.543875 -57.010147749999994 Q16.569 -48.019196875 16.569 -35.23 Q16.569 -29.90424999999999 18.245625 -24.973 Q19.922250000000002 -20.041749999999993 23.374125 -15.998124999999987 Z M47.34 -28.12899999999999 Q41.4225 -28.12899999999999 37.28025 -32.271249999999995 Q33.138 -36.41349999999999 33.138 -42.330999999999996 Q33.138 -48.24849999999999 37.28025 -52.39075 Q41.4225 -56.532999999999994 47.34 -56.532999999999994 Q53.2575 -56.532999999999994 57.399750000000004 -52.39075 Q61.542 -48.24849999999999 61.542 -42.330999999999996 Q61.542 -36.41349999999999 57.399750000000004 -32.271249999999995 Q53.2575 -28.12899999999999 47.34 -28.12899999999999 Z M47.3672205 2.64200000000001 Q39.548625 2.64200000000001 32.644875 -0.316749999999999 Q25.741125 -3.275499999999994 20.563312500000002 -8.453312499999996 Q15.3855 -13.631124999999997 12.42675 -20.530732749999984 Q9.468 -27.430439124999992 9.468 -35.27517024999999 Q9.468 -43.12 12.42675 -49.97443749999999 Q15.3855 -56.828875 20.563312500000002 -62.0066875 Q25.741125 -67.1845 32.640732750000005 -70.14325 Q39.540439125 -73.102 47.38517025 -73.102 Q55.230000000000004 -73.102 62.0844375 -70.14325 Q68.93887500000001 -67.1845 74.1166875 -62.0066875 Q79.2945 -56.828875 82.25325000000001 -49.95234549999999 Q85.212 -43.075717374999996 85.212 -35.25722049999999 Q85.212 -27.438624999999988 82.25325000000001 -20.534875 Q79.2945 -13.631124999999997 74.1166875 -8.453312499999996 Q68.93887500000001 -3.275499999999994 62.0623455 -0.316749999999999 Q55.18571737500001 2.64200000000001 47.3672205 2.64200000000001 Z M47.34 -4.458999999999989 Q52.4685 -4.458999999999989 57.2025 -6.086312499999991 Q61.9365 -7.713624999999993 66.07875 -10.869625 Q61.837875000000004 -13.532499999999999 57.103875 -14.91324999999999 Q52.369875 -16.293999999999997 47.34 -16.293999999999997 Q42.310125 -16.293999999999997 37.5268125 -14.96256249999999 Q32.743500000000004 -13.631124999999997 28.60125 -10.869625 Q32.743500000000004 -7.713624999999993 37.4775 -6.086312499999991 Q42.2115 -4.458999999999989 47.34 -4.458999999999989 Z M47.34 -35.23 Q50.298750000000005 -35.23 52.369875 -37.30112499999999 Q54.441 -39.372249999999994 54.441 -42.330999999999996 Q54.441 -45.28975 52.369875 -47.36087499999999 Q50.298750000000005 -49.431999999999995 47.34 -49.431999999999995 Q44.38125 -49.431999999999995 42.310125 -47.36087499999999 Q40.239000000000004 -45.28975 40.239000000000004 -42.330999999999996 Q40.239000000000004 -39.372249999999994 42.310125 -37.30112499999999 Q44.38125 -35.23 47.34 -35.23 Z"/></g><g id="Light-S" transform="matrix(1 0 0 1 1109.75 696)"><path d="M24.0570045 -15.239402874999996 Q29.3827545 -18.873339625 35.163658875 -20.640995500000002 Q40.94456325 -22.40865137499999 47.34 -22.40865137499999 Q53.735436750000005 -22.40865137499999 59.516341125000004 -20.640995500000002 Q65.2972455 -18.873339625 70.6229955 -15.239402874999996 Q74.302497 -19.283027875000002 76.2067485 -24.403933749999993 Q78.111 -29.52493824999999 78.111 -35.23 Q78.111 -48.019196875 69.11344125000001 -57.010147749999994 Q60.115981125000005 -66.00099999999999 47.31731625 -66.00099999999999 Q34.518750000000004 -66.00099999999999 25.543875 -57.010147749999994 Q16.569 -48.019196875 16.569 -35.23 Q16.569 -29.52493824999999 18.4732515 -24.403933749999993 Q20.377503 -19.283027875000002 24.0570045 -15.239402874999996 Z M47.3411835 -29.11534862499999 Q41.839782375 -29.11534862499999 37.9820655 -32.971882 Q34.124348624999996 -36.82851399999999 34.124348624999996 -42.32981649999999 Q34.124348624999996 -47.831217624999994 37.980882 -51.688934499999995 Q41.837514000000006 -55.546651374999996 47.3388165 -55.546651374999996 Q52.840217625 -55.546651374999996 56.6979345 -51.690118 Q60.555651375000004 -47.83348599999999 60.555651375000004 -42.33218349999999 Q60.555651375000004 -36.83078237499999 56.699118 -32.97306549999999 Q52.84248600000001 -29.11534862499999 47.3411835 -29.11534862499999 Z M47.3672205 0.6694013750000067 Q39.92793675 0.6694013750000067 33.384661125 -2.1187273749999918 Q26.841286874999998 -4.9067574999999835 21.928972875000003 -9.818972874999986 Q17.0167575 -14.731286874999995 14.228727375 -21.270518874999993 Q11.440598625000002 -27.80975087499999 11.440598625000002 -35.27517024999999 Q11.440598625000002 -42.74068824999999 14.228727375 -49.234651375 Q17.0167575 -55.728713125 21.928972875000003 -60.641027124999994 Q26.841286874999998 -65.5532425 33.380518875 -68.341272625 Q39.919750875 -71.129401375 47.38517025 -71.129401375 Q54.850688250000005 -71.129401375 61.344651375000005 -68.341272625 Q67.83871312500001 -65.5532425 72.75102712500001 -60.641027124999994 Q77.66324250000001 -55.728713125 80.451272625 -49.21255937499999 Q83.239401375 -42.69640562499999 83.239401375 -35.25722049999999 Q83.239401375 -27.81793675 80.451272625 -21.274661124999994 Q77.66324250000001 -14.731286874999995 72.75102712500001 -9.818972874999986 Q67.83871312500001 -4.9067574999999835 61.322559375 -2.1187273749999918 Q54.806405625000004 0.6694013750000067 47.3672205 0.6694013750000067 Z M47.34 -4.458999999999989 Q52.58231325 -4.458999999999989 57.638718375 -6.275968374999991 Q62.695222125 -8.092936749999993 66.837472125 -11.476563249999998 Q62.596597125 -14.25325149999999 57.653906625000005 -15.76675075 Q52.71131475 -17.280348624999988 47.34 -17.280348624999988 Q41.96868525 -17.280348624999988 36.95774625000001 -15.835097874999988 Q31.946807250000003 -14.389847124999989 27.842527875000002 -11.476563249999998 Q31.984777875000002 -8.092936749999993 37.041281625 -6.275968374999991 Q42.09768675 -4.458999999999989 47.34 -4.458999999999989 Z M47.34 -34.243651375 Q50.678061750000005 -34.243651375 53.0527545 -36.61824549999999 Q55.427348625 -38.992938249999995 55.427348625 -42.330999999999996 Q55.427348625 -45.66906175 53.0527545 -48.04375449999999 Q50.678061750000005 -50.41834862499999 47.34 -50.41834862499999 Q44.00193825 -50.41834862499999 41.6272455 -48.04375449999999 Q39.252651375000006 -45.66906175 39.252651375000006 -42.330999999999996 Q39.252651375000006 -38.992938249999995 41.6272455 -36.61824549999999 Q44.00193825 -34.243651375 47.34 -34.243651375 Z"/></g><g id="Thin-S" transform="matrix(1 0 0 1 814.015 696)"><path d="M24.73968675 -14.480779374999997 Q30.06543675 -18.001001499999987 35.561906625 -19.711750749999993 Q41.0583765 -21.4225 47.34 -21.4225 Q53.621623500000005 -21.4225 59.118093375 -19.711750749999993 Q64.61456325 -18.001001499999987 69.94031325 -14.480779374999997 Q73.84734262500001 -18.52440437499999 75.979220625 -23.835064749999987 Q78.111 -29.14562649999999 78.111 -35.23 Q78.111 -48.019196875 69.11344125000001 -57.010147749999994 Q60.115981125000005 -66.00099999999999 47.31731625 -66.00099999999999 Q34.518750000000004 -66.00099999999999 25.543875 -57.010147749999994 Q16.569 -48.019196875 16.569 -35.23 Q16.569 -29.14562649999999 18.700779375000003 -23.835064749999987 Q20.832657375 -18.52440437499999 24.73968675 -14.480779374999997 Z M47.342268375 -30.101499999999994 Q42.256966125000005 -30.101499999999994 38.683782375 -33.67251399999999 Q35.1105 -37.24342937499999 35.1105 -42.32873162499999 Q35.1105 -47.414033874999994 38.681415375 -50.98721762499999 Q42.252429375000006 -54.5605 47.337731624999996 -54.5605 Q52.423033875 -54.5605 55.996217625 -50.98948599999999 Q59.569500000000005 -47.418570624999994 59.569500000000005 -42.333268374999996 Q59.569500000000005 -37.247966125 55.99848600000001 -33.67478237499999 Q52.42757062500001 -30.101499999999994 47.342268375 -30.101499999999994 Z M47.3672205 -1.3029999999999973 Q40.3072485 -1.3029999999999973 34.12425 -3.92031025 Q27.9412515 -6.537719124999995 23.294436 -11.184435999999991 Q18.647719125000002 -15.831251499999993 16.030310250000003 -22.01010774999999 Q13.413 -28.189062625 13.413 -35.27517024999999 Q13.413 -42.36137649999999 16.030310250000003 -48.495062499999996 Q18.647719125000002 -54.62874849999999 23.294436 -59.275563999999996 Q27.9412515 -63.922280875 34.12010775 -66.53968975 Q40.299062625 -69.157 47.38517025 -69.157 Q54.471376500000005 -69.157 60.6050625 -66.53968975 Q66.7387485 -63.922280875 71.385564 -59.275563999999996 Q76.032280875 -54.62874849999999 78.64968975000001 -48.472970499999995 Q81.26700000000001 -42.31709387499999 81.26700000000001 -35.25722049999999 Q81.26700000000001 -28.197248499999993 78.64968975000001 -22.01424999999999 Q76.032280875 -15.831251499999993 71.385564 -11.184435999999991 Q66.7387485 -6.537719124999995 60.582970499999995 -3.92031025 Q54.427093875000004 -1.3029999999999973 47.3672205 -1.3029999999999973 Z M47.34 -4.458999999999989 Q52.6961265 -4.458999999999989 58.074936750000006 -6.4656242499999905 Q63.453845625 -8.472248499999992 67.596095625 -12.083501499999997 Q63.355220625 -14.97390437499999 58.20393825 -16.620251499999995 Q53.052655875 -18.266499999999994 47.34 -18.266499999999994 Q41.627344125 -18.266499999999994 36.38887725 -16.707435999999987 Q31.15031175 -15.148470624999987 27.083904375000003 -12.083501499999997 Q31.226154375000004 -8.472248499999992 36.60506325 -6.4656242499999905 Q41.9838735 -4.458999999999989 47.34 -4.458999999999989 Z M47.34 -33.25749999999999 Q51.057373500000004 -33.25749999999999 53.735436750000005 -35.935563249999994 Q56.4135 -38.613626499999995 56.4135 -42.330999999999996 Q56.4135 -46.0483735 53.735436750000005 -48.72643675 Q51.057373500000004 -51.40449999999999 47.34 -51.40449999999999 Q43.6226265 -51.40449999999999 40.94456325 -48.72643675 Q38.2665 -46.0483735 38.2665 -42.330999999999996 Q38.2665 -38.613626499999995 40.94456325 -35.935563249999994 Q43.6226265 -33.25749999999999 47.34 -33.25749999999999 Z"/></g><g id="Ultralight-S" transform="matrix(1 0 0 1 517.792 696)"><path d="M25.149375000000003 -14.025624999999991 Q30.475125000000002 -17.477499999999992 35.800875000000005 -19.154124999999993 Q41.126625000000004 -20.830749999999995 47.34 -20.830749999999995 Q53.553375 -20.830749999999995 58.879125 -19.154124999999993 Q64.204875 -17.477499999999992 69.530625 -14.025624999999991 Q73.57425 -18.069249999999997 75.842625 -23.493624999999994 Q78.111 -28.917999999999992 78.111 -35.23 Q78.111 -48.019196875 69.11344125000001 -57.010147749999994 Q60.115981125000005 -66.00099999999999 47.31731625 -66.00099999999999 Q34.518750000000004 -66.00099999999999 25.543875 -57.010147749999994 Q16.569 -48.019196875 16.569 -35.23 Q16.569 -28.917999999999992 18.837375 -23.493624999999994 Q21.10575 -18.069249999999997 25.149375000000003 -14.025624999999991 Z M47.34295875 -30.693249999999992 Q42.507375 -30.693249999999992 39.1048125 -34.092853749999996 Q35.70225 -37.4924575 35.70225 -42.32804125 Q35.70225 -47.163624999999996 39.101853750000004 -50.5661875 Q42.5014575 -53.96874999999999 47.337041250000006 -53.96874999999999 Q52.172625000000004 -53.96874999999999 55.575187500000006 -50.56914624999999 Q58.97775 -47.16954249999999 58.97775 -42.333958749999994 Q58.97775 -37.498374999999996 55.57814625 -34.095812499999994 Q52.1785425 -30.693249999999992 47.34295875 -30.693249999999992 Z M47.3672205 -2.4864999999999924 Q40.534875 -2.4864999999999924 34.5680625 -5.001437499999994 Q28.60125 -7.5163749999999965 24.1138125 -12.003812499999995 Q19.626375 -16.491249999999994 17.1114375 -22.453920249999996 Q14.5965 -28.416689124999998 14.5965 -35.27517024999999 Q14.5965 -42.13374999999999 17.1114375 -48.051249999999996 Q19.626375 -53.96874999999999 24.1138125 -58.4561875 Q28.60125 -62.943625 34.56392025 -65.4585625 Q40.526689125 -67.9735 47.38517025 -67.9735 Q54.243750000000006 -67.9735 60.16125 -65.4585625 Q66.07875 -62.943625 70.5661875 -58.4561875 Q75.053625 -53.96874999999999 77.5685625 -48.029157999999995 Q80.0835 -42.08946737499999 80.0835 -35.25722049999999 Q80.0835 -28.424874999999993 77.5685625 -22.458062499999997 Q75.053625 -16.491249999999994 70.5661875 -12.003812499999995 Q66.07875 -7.5163749999999965 60.139157999999995 -5.001437499999994 Q54.199467375000005 -2.4864999999999924 47.3672205 -2.4864999999999924 Z M47.34 -4.458999999999989 Q52.764375 -4.458999999999989 58.336687500000004 -6.579437499999997 Q63.909000000000006 -8.699874999999992 68.05125 -12.447624999999988 Q63.810375 -15.406374999999997 58.5339375 -17.132312499999998 Q53.2575 -18.858249999999998 47.34 -18.858249999999998 Q41.4225 -18.858249999999998 36.0474375 -17.230937499999996 Q30.672375000000002 -15.603624999999994 26.62875 -12.447624999999988 Q30.771 -8.699874999999992 36.3433125 -6.579437499999997 Q41.915625 -4.458999999999989 47.34 -4.458999999999989 Z M47.34 -32.665749999999996 Q51.285000000000004 -32.665749999999996 54.145125 -35.52587499999999 Q57.005250000000004 -38.385999999999996 57.005250000000004 -42.330999999999996 Q57.005250000000004 -46.275999999999996 54.145125 -49.13612499999999 Q51.285000000000004 -51.996249999999996 47.34 -51.996249999999996 Q43.395 -51.996249999999996 40.534875 -49.13612499999999 Q37.67475 -46.275999999999996 37.67475 -42.330999999999996 Q37.67475 -38.385999999999996 40.534875 -35.52587499999999 Q43.395 -32.665749999999996 47.34 -32.665749999999996 Z"/></g></g></svg>