<svg xmlns="http://www.w3.org/2000/svg" height="20" viewBox="0 96 960 960" width="20"><path d="M237 771q54-38 115.5-56.5T480 696q66 0 127.5 18.5T723 771q35-41 52-91t17-104q0-129.675-91.23-220.838Q609.541 264 479.77 264 350 264 259 355.162 168 446.325 168 576q0 54 17 104t52 91Zm243-123q-60 0-102-42t-42-102q0-60 42-102t102-42q60 0 102 42t42 102q0 60-42 102t-102 42Zm.276 312Q401 960 331 930q-70-30-122.5-82.5T126 725.042q-30-69.959-30-149.5Q96 496 126 426.5t82.5-122Q261 252 330.958 222q69.959-30 149.5-30Q560 192 629.5 222t122 82.5Q804 357 834 426.724q30 69.725 30 149Q864 655 834 725q-30 70-82.5 122.5T629.276 930q-69.725 30-149 30ZM480 888q52 0 100-16.5t90-48.5q-43-27-91-41t-99-14q-51 0-99.5 13.5T290 823q42 32 90 48.5T480 888Zm0-312q30 0 51-21t21-51q0-30-21-51t-51-21q-30 0-51 21t-21 51q0 30 21 51t51 21Zm0-72Zm0 319Z"/></svg>