<svg xmlns="http://www.w3.org/2000/svg" height="20" viewBox="0 96 960 960" width="20"><path d="M480 744q70 0 119-49t49-119q0-70-49-119t-119-49q-70 0-119 49t-49 119q0 70 49 119t119 49Zm0-72q-40 0-68-28t-28-68q0-40 28-68t68-28q40 0 68 28t28 68q0 40-28 68t-68 28Zm0 192q-142.596 0-259.798-78.5T48 576q55-131 172.202-209.5T480 288q142.596 0 259.798 78.5T912 576q-55 131-172.202 209.5T480 864Zm0-288Zm0 216q112 0 207-58t146-158q-51-100-146-158t-207-58q-112 0-207 58T127 576q51 100 146 158t207 58Z"/></svg>